<?xml version="1.0" encoding="UTF-8" standalone="no"?>
<!-- Created with Inkscape (http://www.inkscape.org/) -->

<svg
   xmlns:dc="http://purl.org/dc/elements/1.1/"
   xmlns:cc="http://creativecommons.org/ns#"
   xmlns:rdf="http://www.w3.org/1999/02/22-rdf-syntax-ns#"
   xmlns:svg="http://www.w3.org/2000/svg"
   xmlns="http://www.w3.org/2000/svg"
   xmlns:sodipodi="http://sodipodi.sourceforge.net/DTD/sodipodi-0.dtd"
   xmlns:inkscape="http://www.inkscape.org/namespaces/inkscape"
   width="97.802139mm"
   height="111.42596mm"
   viewBox="0 0 346.54301 394.81638"
   id="svg4524"
   version="1.1"
   inkscape:version="0.91 r13725"
   sodipodi:docname="Alphabet19P.svg">
  <defs
     id="defs4526">
    <linearGradient
       x1="0"
       y1="0"
       x2="1"
       y2="0"
       gradientUnits="userSpaceOnUse"
       gradientTransform="matrix(-1.775e-5,403.68043,-403.68043,-1.775e-5,-1271.6564,-193.4965)"
       spreadMethod="pad"
       id="linearGradient264">
      <stop
         style="stop-opacity:1;stop-color:#fdc82c"
         offset="0"
         id="stop266" />
      <stop
         style="stop-opacity:1;stop-color:#fdc82c"
         offset="0.239968"
         id="stop268" />
      <stop
         style="stop-opacity:1;stop-color:#236f46"
         offset="1"
         id="stop270" />
    </linearGradient>
  </defs>
  <sodipodi:namedview
     id="base"
     pagecolor="#ffffff"
     bordercolor="#666666"
     borderopacity="1.0"
     inkscape:pageopacity="0.0"
     inkscape:pageshadow="2"
     inkscape:zoom="1.3423962"
     inkscape:cx="173.2715"
     inkscape:cy="197.40819"
     inkscape:document-units="px"
     inkscape:current-layer="layer1"
     showgrid="false"
     fit-margin-top="0"
     fit-margin-left="0"
     fit-margin-right="0"
     fit-margin-bottom="0"
     inkscape:window-width="1366"
     inkscape:window-height="705"
     inkscape:window-x="-8"
     inkscape:window-y="-8"
     inkscape:window-maximized="1" />
  <metadata
     id="metadata4529">
    <rdf:RDF>
      <cc:Work
         rdf:about="">
        <dc:format>image/svg+xml</dc:format>
        <dc:type
           rdf:resource="http://purl.org/dc/dcmitype/StillImage" />
        <dc:title></dc:title>
      </cc:Work>
    </rdf:RDF>
  </metadata>
  <g
     inkscape:label="Layer 1"
     inkscape:groupmode="layer"
     id="layer1"
     transform="translate(1404.7001,187.90313)">
    <path
       style="fill:url(#linearGradient264);stroke:none"
       d="m -1219.9579,-187.90313 c -48.6725,0 -91.63,10.77702 -128.875,32.33202 -37.25,21.555 -55.8672,47.52298 -55.8672,77.917977 0,17.8775 7.8441,33.17671 23.5391,45.88671 14.7,11.9175 30.6927,17.8789 47.9727,17.8789 16.69,0 42.1137,-7.05123 76.2812,-21.15623 10.325,-4.3675 20.7591,-8.73688 31.2891,-13.10938 14.7,-5.76 28.6062,-8.64062 41.7187,-8.64062 7.545,0 13.7052,1.59312 18.4727,4.76562 6.555,4.37 9.832,11.52453 9.832,21.45703 0,10.92501 -3.9769,20.06406 -11.9219,27.4140599 -6.5525,5.96 -12.8095,8.9336 -18.7695,8.9336 -3.9775,0 -7.1527,-0.39 -9.5352,-1.18752 -7.3525,-2.38498 -11.5217,-3.57812 -12.5117,-3.57812 -2.9825,0 -5.6683,0.645 -8.0508,1.9375 -2.3825,1.295 -3.5742,3.2325 -3.5742,5.8125 0,3.3800001 1.8381,6.6061001 5.5157,9.6836001 3.6724,3.0825 7.0029,4.61718 9.9804,4.61718 19.6675,0 34.7591,-5.46172 45.2891,-16.3867201 9.7325,-10.135 14.6055,-24.1381199 14.6055,-42.0156099 0,-9.735 -5.8646,-17.8761 -17.5821,-24.4336 -9.3375,-5.165 -18.6767,-7.74609 -28.0117,-7.74609 -9.7325,0 -22.0492,2.9775 -36.9492,8.9375 -4.965,1.9875 -11.6224,5.06578 -19.9649,9.23828 -17.085,9.535 -31.8375,16.08656 -44.25,19.66406 -12.415,3.575 -27.9589,5.36719 -46.6289,5.36719 -13.31,0 -25.6253,-6.15656 -36.9453,-18.47656 -10.5325,-11.5175 -15.7968,-22.84125 -15.7968,-33.96875 0,-15.690005 5.9589,-29.995157 17.8789,-42.910157 9.9325,-10.7275 22.0515,-18.77031 36.3515,-24.13282 7.7475,-2.9825 19.5685,-5.11124 35.461,-6.40624 15.8875,-1.2875 33.0743,-1.94141 51.5468,-1.94141 26.6175,0 45.0933,0.99797 55.4258,2.98047 17.28,3.38 32.9745,11.12718 47.082,23.24218 13.3025,11.32501 23.0378,21.26078 29.1953,29.800785 8.94,12.320002 13.4102,24.434062 13.4102,36.351562 0,28.41 -7.7458,52.9401499 -23.2383,73.59765 -11.9225,15.895 -27.7139,28.60704 -47.3789,38.14454 -15.3,7.35 -28.0106,11.02344 -38.1406,11.02344 -4.5725,0 -8.7456,-0.29454 -12.5156,-0.89454 -5.1675,-1.1925 -9.0386,-2.08468 -11.6211,-2.67968 l -0.8985,-81.05077 c -1.19,-0.99 -2.0821,-1.68737 -2.6796,-2.08985 -2.1875,-1.585 -3.4736,-2.38281 -3.8711,-2.38281 -2.585,0 -5.3638,0.40531 -8.3438,1.19531 -2.975,0.79749 -6.1576,1.88985 -9.5351,3.27735 -6.155,2.585 -14.008,8.34374 -23.543,17.2812399 l 0.3008,171.0390531 c 0,7.55 -2.1363,13.7561 -6.4063,18.6211 -4.2725,4.8725 -9.4895,7.7011 -15.6445,8.4961 -6.1575,0.795 -10.6302,1.5903 -13.4102,2.3828 -2.7825,0.7975 -5.064,1.6897 -6.8515,2.6797 -0.5975,1.195 -0.8946,2.19046 -0.8946,2.98046 0,1.9875 1.0938,3.6789 3.2813,5.0664 l 34.5625,-4.46874 64.6601,0.89062 c 2.58,0 6.6524,0.29954 12.2149,0.89454 15.095,1.5975 24.3323,2.3828 27.7148,2.3828 5.365,0 8.4394,-0.59406 9.2344,-1.78906 1.39,-1.9825 0.1958,-4.76234 -3.5742,-8.33984 -0.595,-0.595 -1.5891,-1.48968 -2.9766,-2.67968 l -29.8008,-1.79298 c -6.5525,0 -11.8714,-2.23062 -15.9414,-6.70312 -4.075,-4.47 -6.1054,-10.08094 -6.1054,-16.83594 l -0.3008,-93.859383 16.6875,1.4922 c 12.3125,0 29.7939,-4.57094 52.4414,-13.71094 29.3975,-11.9175 53.4369,-27.41188 72.1094,-46.48438 24.4325,-25.0275001 36.6523,-53.6314 36.6523,-85.8164 0,-36.152507 -16.3905,-65.254687 -49.168,-87.304687 -30.39,-20.4575 -67.9378,-30.6914 -112.6328,-30.6914 z m -19.664,64.0625 -36.9532,24.734372 c -7.15,4.7675 -13.0067,9.085938 -17.5742,12.960935 -4.575,3.8725 -8.7456,7.79703 -12.5156,11.76953 1.585,2.1875 3.0748,3.27735 4.4648,3.27735 2.3825,-0.9925 4.0715,-1.58516 5.0665,-1.78516 3.575,-1.19 5.6667,-1.68719 6.2617,-1.49219 1.7875,0.995 3.0736,2.43531 3.8711,4.32031 0.79,1.8925 1.4895,3.57891 2.082,5.0664 0.5975,1.48751 0.8984,3.62625 0.8984,6.40626 -0.2025,3.575 -0.3007,6.15999 -0.3007,7.75 0,3.975 1.3907,5.95703 4.1757,5.95703 4.765,0 12.3146,-3.07829 22.6446,-9.23829 1.3875,-0.78999 7.8407,-4.95921 19.3632,-12.51171 l 1.4922,-52.742187 -2.9765,-4.47265 z"
       id="path272"
       inkscape:connector-curvature="0" />
  </g>
</svg>
